<?xml version="1.0" standalone="no"?>
<!DOCTYPE svg PUBLIC "-//W3C//DTD SVG 20010904//EN"
 "http://www.w3.org/TR/2001/REC-SVG-20010904/DTD/svg10.dtd">
<svg version="1.0" xmlns="http://www.w3.org/2000/svg"
 width="600.000000pt" height="600.000000pt" viewBox="0 0 600.000000 600.000000"
 preserveAspectRatio="xMidYMid meet">
<metadata>
Created by potrace 1.16, written by Peter Selinger 2001-2019
</metadata>
<g transform="translate(0.000000,600.000000) scale(0.100000,-0.100000)"
fill="#000000" stroke="none">
<path d="M0 3000 l0 -3000 3000 0 3000 0 0 3000 0 3000 -3000 0 -3000 0 0
-3000z m3125 2516 c191 -46 228 -61 279 -116 53 -57 77 -108 105 -220 25 -97
55 -158 116 -232 121 -148 319 -237 461 -208 89 18 151 55 237 139 l79 76 19
-24 c25 -30 24 -66 -3 -165 -23 -86 -162 -373 -225 -466 -88 -128 -233 -142
-471 -48 -146 58 -175 94 -268 335 -89 230 -124 273 -264 328 -136 52 -240 69
-437 69 -128 1 -185 -3 -194 -11 -15 -15 5 -20 119 -28 110 -7 316 -49 423
-85 96 -32 184 -81 200 -112 6 -11 28 -74 50 -141 21 -67 66 -177 100 -244 98
-199 189 -282 450 -414 121 -60 147 -89 233 -257 48 -95 94 -168 126 -204 80
-90 241 -190 405 -251 171 -65 423 -95 640 -78 71 6 131 8 134 5 15 -14 -55
-56 -140 -83 -347 -109 -701 -117 -1144 -25 -123 26 -244 57 -490 124 -463
127 -623 144 -912 95 -262 -44 -553 -126 -998 -281 -623 -216 -675 -229 -793
-213 -138 20 -259 94 -380 233 -64 74 -55 93 36 70 148 -38 353 -34 525 11
158 41 254 83 607 267 175 92 313 145 580 226 501 152 681 202 727 202 75 0
156 -25 293 -90 106 -51 141 -62 225 -75 117 -17 135 -18 135 -6 0 21 -469
271 -507 271 -73 0 -400 -68 -838 -175 -259 -63 -413 -65 -485 -7 l-23 18 54
202 c45 174 57 208 85 241 41 47 130 94 304 160 191 73 276 134 257 185 -9 24
-39 19 -88 -14 -58 -40 -110 -53 -172 -45 -96 14 -187 69 -225 139 -36 66 -7
593 35 624 10 7 93 56 184 107 189 108 375 200 434 214 70 18 278 6 400 -23z
m1085 -2529 c182 -41 301 -50 530 -44 162 5 231 11 328 31 67 14 127 28 132
31 6 3 10 1 10 -4 0 -15 -77 -52 -188 -91 -165 -59 -272 -136 -515 -370 -92
-90 -170 -160 -173 -157 -4 3 14 39 39 79 127 203 138 317 36 385 -20 13 -84
38 -141 54 -116 34 -170 59 -210 97 -37 34 -35 44 5 27 17 -7 84 -24 147 -38z
m-597 -127 c105 -281 -5 -624 -183 -571 -96 29 -172 178 -186 366 l-6 80 164
97 c89 54 168 98 174 98 7 0 23 -31 37 -70z m-1139 -89 c87 -39 161 -73 164
-76 4 -3 9 -34 13 -68 9 -92 -7 -211 -38 -279 -78 -174 -221 -172 -307 4 -66
133 -82 309 -41 446 13 42 20 52 33 48 9 -3 88 -37 176 -75z m-1693 5 c146
-83 408 -88 672 -11 45 13 90 27 100 30 10 4 -6 -17 -36 -47 -29 -30 -70 -88
-92 -129 -34 -65 -39 -82 -39 -144 -1 -84 22 -135 91 -202 44 -42 45 -44 17
-37 -107 25 -272 110 -417 214 -69 50 -330 306 -367 360 l-24 35 25 -21 c13
-12 45 -33 70 -48z"/>
</g>
</svg>
